<?xml version="1.0" encoding="UTF-8" standalone="no"?> <svg width="64" height="64" viewBox="0 0 64 64" fill="none" xmlns="http://www.w3.org/2000/svg">
<path d="M32 10.5C26.3003 10.5079 20.8363 12.7757 16.806 16.806C12.7757 20.8363 10.5079 26.3003 10.5 32C11.68 60.52 52.32 60.51 53.5 32C53.4921 26.3003 51.2243 20.8363 47.194 16.806C43.1637 12.7757 37.6997 10.5079 32 10.5V10.5ZM32 50.5C27.0951 50.4947 22.3926 48.5439 18.9244 45.0756C15.4561 41.6074 13.5053 36.9049 13.5 32C14.5 7.46 49.5 7.46 50.5 32C50.4947 36.9049 48.5439 41.6074 45.0756 45.0756C41.6074 48.5439 36.9049 50.4947 32 50.5V50.5Z" fill="url(#paint0_linear_122:2547)"/>
<path d="M32 28.5701C31.6022 28.5701 31.2206 28.7281 30.9393 29.0094C30.658 29.2907 30.5 29.6722 30.5 30.0701V39.4801C30.5 39.8779 30.658 40.2594 30.9393 40.5407C31.2206 40.822 31.6022 40.9801 32 40.9801C32.3978 40.9801 32.7794 40.822 33.0607 40.5407C33.342 40.2594 33.5 39.8779 33.5 39.4801V30.0701C33.5 29.6722 33.342 29.2907 33.0607 29.0094C32.7794 28.7281 32.3978 28.5701 32 28.5701V28.5701Z" fill="url(#paint1_linear_122:2547)"/>
<path d="M30.9399 22.92C30.8688 22.9899 30.8052 23.067 30.7499 23.15C30.6953 23.2321 30.6484 23.3191 30.6099 23.41C30.5773 23.5015 30.5506 23.595 30.5299 23.69C30.4605 24.0428 30.5202 24.4089 30.698 24.7214C30.8759 25.034 31.1602 25.2722 31.499 25.3927C31.8378 25.5133 32.2087 25.5081 32.544 25.3781C32.8793 25.248 33.1567 25.0019 33.3257 24.6845C33.4947 24.3671 33.5441 23.9995 33.4648 23.6487C33.3855 23.2979 33.1828 22.9873 32.8937 22.7735C32.6045 22.5597 32.2482 22.4568 31.8896 22.4837C31.531 22.5106 31.1939 22.6654 30.9399 22.92V22.92Z" fill="url(#paint2_linear_122:2547)"/>
<defs>
<linearGradient id="paint0_linear_122:2547" x1="10.5" y1="31.94" x2="53.5" y2="31.94" gradientUnits="userSpaceOnUse">
<stop stop-color="#6031A5"/>
<stop offset="0.63" stop-color="#412083"/>
<stop offset="1" stop-color="#331974"/>
</linearGradient>
<linearGradient id="paint1_linear_122:2547" x1="122" y1="460.066" x2="131" y2="460.066" gradientUnits="userSpaceOnUse">
<stop stop-color="#6031A5"/>
<stop offset="0.63" stop-color="#412083"/>
<stop offset="1" stop-color="#331974"/>
</linearGradient>
<linearGradient id="paint2_linear_122:2547" x1="121.972" y1="94.4195" x2="131.032" y2="94.4195" gradientUnits="userSpaceOnUse">
<stop stop-color="#6031A5"/>
<stop offset="0.63" stop-color="#412083"/>
<stop offset="1" stop-color="#331974"/>
</linearGradient>
</defs>
</svg>
